<?xml version="1.0" encoding="UTF-8"?>
<svg xmlns="http://www.w3.org/2000/svg" width="1000" height="1000" viewBox="0 0 1000 1000">
  <defs>
    <linearGradient id="wash" x1="0" y1="1" x2="1" y2="0">
      <stop offset="0" stop-color="#c7b59a" stop-opacity="0.10"/>
      <stop offset="0.55" stop-color="#d9cbb3" stop-opacity="0.06"/>
      <stop offset="1" stop-color="#efe7db" stop-opacity="0.00"/>
    </linearGradient>
    <linearGradient id="ink" x1="0" y1="1" x2="1" y2="0">
      <stop offset="0" stop-color="#2a2622" stop-opacity="0.22"/>
      <stop offset="1" stop-color="#2a2622" stop-opacity="0.10"/>
    </linearGradient>
  </defs>

  <!-- soft wash blob -->
  <path d="M80,980 C160,740 300,600 470,500 C640,400 780,330 980,220
           C820,500 720,620 600,720 C480,820 320,900 80,980 Z"
        fill="url(#wash)" />

  <!-- line art on top -->
  <g fill="none" stroke="url(#ink)" stroke-width="6" stroke-linecap="round" stroke-linejoin="round">
    <path d="M120,920 C210,740 320,640 430,560 C540,480 650,410 860,320" />
    <path d="M420,585 C380,520 360,470 365,420 C370,350 430,300 510,290 C590,280 660,320 680,390 C700,460 660,520 590,560 C520,600 460,610 420,585 Z" />
    <path d="M395,520 C470,470 560,400 665,360" />
    <path d="M610,470 C590,420 588,380 605,350 C630,310 690,298 745,320 C800,342 830,395 820,445 C810,495 760,525 700,520 C650,515 625,500 610,470 Z" />
    <path d="M600,415 C660,395 730,365 810,330" />
    <path d="M300,700 C270,660 262,630 270,600 C285,555 340,535 390,548 C440,561 468,606 455,650 C442,694 392,720 340,715 C320,713 310,708 300,700 Z" />
    <path d="M285,645 C330,625 380,598 435,565" />
  </g>
</svg>
