<?xml version="1.0" encoding="UTF-8"?>
<svg xmlns="http://www.w3.org/2000/svg" width="800" height="800" viewBox="0 0 800 800">
  <defs>
    <pattern id="leafPattern" width="220" height="220" patternUnits="userSpaceOnUse">
      <g opacity="0.10" fill="none" stroke="#2a2622" stroke-width="4" stroke-linecap="round" stroke-linejoin="round">
        <!-- stem -->
        <path d="M28,190 C70,135 115,105 165,75 C192,58 208,36 214,18" />
        <!-- elongated leaf -->
        <path d="M120,140
                 C92,118 78,96 78,78
                 C78,52 110,34 140,42
                 C170,50 190,78 184,106
                 C178,134 148,156 120,140 Z" />
        <!-- midrib -->
        <path d="M92,96 C120,86 150,68 178,48" />
      </g>

      <g transform="translate(220,0) scale(-1,1) translate(-220,0)" opacity="0.08" fill="none" stroke="#2a2622" stroke-width="4" stroke-linecap="round" stroke-linejoin="round">
        <path d="M28,190 C70,135 115,105 165,75 C192,58 208,36 214,18" />
        <path d="M120,140
                 C92,118 78,96 78,78
                 C78,52 110,34 140,42
                 C170,50 190,78 184,106
                 C178,134 148,156 120,140 Z" />
        <path d="M92,96 C120,86 150,68 178,48" />
      </g>
    </pattern>
  </defs>

  <rect x="0" y="0" width="800" height="800" fill="url(#leafPattern)" />
</svg>
