<?xml version="1.0" encoding="UTF-8"?>
<svg xmlns="http://www.w3.org/2000/svg" width="1000" height="1000" viewBox="0 0 1000 1000">
  <g fill="none" stroke="#2a2622" stroke-width="6" stroke-linecap="round" stroke-linejoin="round" opacity="0.18">
    <!-- stem -->
    <path d="M120,920 C210,740 320,640 430,560 C540,480 650,410 860,320" />
    <!-- main leaf -->
    <path d="M420,585 C380,520 360,470 365,420 C370,350 430,300 510,290 C590,280 660,320 680,390 C700,460 660,520 590,560 C520,600 460,610 420,585 Z" />
    <path d="M395,520 C470,470 560,400 665,360" />
    <!-- secondary leaf -->
    <path d="M610,470 C590,420 588,380 605,350 C630,310 690,298 745,320 C800,342 830,395 820,445 C810,495 760,525 700,520 C650,515 625,500 610,470 Z" />
    <path d="M600,415 C660,395 730,365 810,330" />
    <!-- small leaves along stem -->
    <path d="M300,700 C270,660 262,630 270,600 C285,555 340,535 390,548 C440,561 468,606 455,650 C442,694 392,720 340,715 C320,713 310,708 300,700 Z" />
    <path d="M285,645 C330,625 380,598 435,565" />
    <path d="M760,355 C740,325 735,300 742,275 C755,235 805,222 850,236 C895,250 920,285 912,325 C904,365 862,392 815,388 C790,386 775,375 760,355 Z" />
    <path d="M750,315 C790,295 835,270 888,248" />
    <!-- delicate twigs -->
    <path d="M520,545 C560,520 605,505 650,500" />
    <path d="M250,800 C300,760 350,720 400,680" />
  </g>
</svg>
